#!OML:ASF E:\pregnant2\Project 1\Capture day 1\Session 1\pregnant2.ASF
:FULLY-SPECIFIED
:DEGREES
1788
root 8.51978 17.1054 25.5152 31.5249 -1.61024 -0.19091
lowerback -15.6639 0.509613 0.367874
upperback -15.2888 0.628844 -0.0360155
thorax -7.72596 0.276929 -0.189538
lowerneck -13.453 -2.07219 -3.65024
upperneck 26.5291 -2.76693 2.56948
head 10.8497 -1.32704 1.18226
rclavicle -1.90709e-015 -2.43511e-015
rhumerus -56.2 9.77551 -77.8985
rradius 38.7723
rwrist 5.21266
rhand -17.1651 -16.4414
rfingers 7.12502
rthumb 9.076 -46.2261
lclavicle -1.90709e-015 -2.43511e-015
lhumerus -53.1802 -8.11596 82.6603
lradius 44.1183
lwrist 5.76766
lhand -17.6873 26.8348
lfingers 7.12502
lthumb 8.57216 56.6408
rfemur -43.5412 13.2797 15.8478
rtibia 29.857
rfoot -16.089 -19.7738
rtoes 2.57788
lfemur -42.7505 -14.5533 -11.0262
ltibia 29.0583
lfoot -9.40315 23.6996
ltoes -17.5408
1789
root 8.51419 17.1095 25.5376 31.2441 -1.64263 -0.218316
lowerback -15.7287 0.510683 0.379838
upperback -15.3526 0.62891 -0.0185885
thorax -7.76621 0.27645 -0.177331
lowerneck -13.3036 -2.07076 -3.66765
upperneck 26.5794 -2.76634 2.56374
head 10.839 -1.33087 1.18458
rclavicle -1.01877e-015 -2.48481e-016
rhumerus -56.0321 9.26496 -77.6799
rradius 38.6876
rwrist 5.25442
rhand -17.1553 -16.3682
rfingers 7.12502
rthumb 9.08547 -46.1525
lclavicle -1.01877e-015 -2.48481e-016
lhumerus -52.9456 -7.34298 82.3313
lradius 43.6594
lwrist 5.61187
lhand -17.5498 26.8161
lfingers 7.12502
lthumb 8.70479 56.6166
rfemur -43.0552 13.4405 15.9214
rtibia 29.6855
rfoot -16.1195 -19.8563
rtoes 2.57133
lfemur -42.2678 -14.6417 -11.0707
ltibia 28.9373
lfoot -9.43969 23.8167
ltoes -17.5708
1790
root 8.5087 17.113 25.5599 30.9856 -1.67433 -0.242735
lowerback -15.8091 0.50949 0.388547
upperback -15.417 0.626145 -0.00130889
thorax -7.79902 0.274847 -0.163564
lowerneck -13.1453 -2.06834 -3.68285
upperneck 26.5972 -2.76517 2.56035
head 10.8145 -1.33397 1.18735
rclavicle 3.96948e-015 9.93923e-017
rhumerus -55.8766 8.8056 -77.5214
rradius 38.6236
rwrist 5.2428
rhand -17.1467 -16.299
rfingers 7.12502
rthumb 9.09375 -46.083
lclavicle 3.96948e-015 9.93923e-017
lhumerus -52.7248 -6.62616 82.0505
lradius 43.1884
lwrist 5.43779
lhand -17.3797 26.8115
lfingers 7.12502
lthumb 8.86899 56.6051
rfemur -42.6022 13.5771 15.9986
rtibia 29.5295
rfoot -16.1455 -19.9202
rtoes 2.5463
lfemur -41.8165 -14.7248 -11.1147
ltibia 28.8268
lfoot -9.48057 23.9317
ltoes -17.5972
1791
root 8.5033 17.1161 25.5821 30.7541 -1.70535 -0.265007
lowerback -15.9098 0.505852 0.393348
upperback -15.4835 0.620398 0.0171701
thorax -7.82368 0.272192 -0.146414
lowerneck -12.9775 -2.06486 -3.70398
upperneck 26.5825 -2.76401 2.56891
head 10.7762 -1.33628 1.19535
rclavicle -1.25483e-015 -7.60351e-015
rhumerus -55.7331 8.40326 -77.4239
rradius 38.5808
rwrist 5.17868
rhand -17.1141 -16.2625
rfingers 7.12502
rthumb 9.12522 -46.0451
lclavicle -1.25483e-015 -7.60351e-015
lhumerus -52.5149 -5.96765 81.8211
lradius 42.6983
lwrist 5.25178
lhand -17.1781 26.848
lfingers 7.12502
lthumb 9.06352 56.6333
rfemur -42.1859 13.6951 16.0757
rtibia 29.3864
rfoot -16.1646 -19.9723
rtoes 2.49858
lfemur -41.4006 -14.8045 -11.1544
ltibia 28.7251
lfoot -9.52381 24.046
ltoes -17.6233
1792
root 8.49797 17.1189 25.6041 30.5441 -1.73539 -0.285977
lowerback -16.0226 0.500752 0.395684
upperback -15.5525 0.612872 0.0360065
thorax -7.84505 0.268906 -0.127567
lowerneck -12.7975 -2.06257 -3.72914
upperneck 26.5358 -2.7657 2.58593
head 10.7239 -1.33936 1.20664
rclavicle -2.23633e-016 -4.87022e-015
rhumerus -55.6016 8.05283 -77.3851
rradius 38.5525
rwrist 5.08407
rhand -17.061 -16.2528
rfingers 7.12502
rthumb 9.17647 -46.0332
lclavicle -2.23633e-016 -4.87022e-015
lhumerus -52.3185 -5.36902 81.6422
lradius 42.1934
lwrist 5.05153
lhand -16.9694 26.9108
lfingers 7.12502
lthumb 9.26487 56.6872
rfemur -41.7991 13.7992 16.1522
rtibia 29.2527
rfoot -16.1796 -20.0146
rtoes 2.44372
lfemur -41.0132 -14.8794 -11.1909
ltibia 28.6299
lfoot -9.57298 24.1569
ltoes -17.6375
